<?xml version="1.0" encoding="UTF-8"?>
<svg id="Layer_2" data-name="Layer 2" xmlns="http://www.w3.org/2000/svg" viewBox="0 0 356.66 330.17">
  <defs>
    <style>
      .cls-1 {
        fill: #fd8415;
      }

      .cls-1, .cls-2 {
        stroke: #231f20;
        stroke-miterlimit: 10;
      }

      .cls-2 {
        fill: #0974d6;
      }
    </style>
  </defs>
  <g id="Layer_1-2" data-name="Layer 1">
    <path class="cls-2" d="M144.98,302.42c0,10.55,4.12,20.14,10.85,27.25H30.5c-16.57,0-30-13.44-30-30v-139.13c27.18,0,69.63,57,144.48,57v84.88Z"/>
    <path class="cls-1" d="M260.87,259.85c0,22.86,18.75,41.4,41.87,41.4h43.83v.5c0,1.63-.14,3.22-.42,4.77.01.02,0,.03-.01.04-2.3,13.13-13.87,23.1-27.81,23.1h-127.53c-15.6,0-28.24-12.49-28.24-27.91v-108.42c0-15.41,12.64-27.91,28.24-27.91h127.53c15.6,0,28.24,12.49,28.24,27.91v25.13h-43.83c-23.12,0-41.87,18.53-41.87,41.39Z"/>
    <path class="cls-1" d="M345.08,230.9h-39.28c-.52,0-1.03.04-1.54.11-.77-.08-1.57-.11-2.36-.11-4.08,0-7.96.87-11.45,2.44-9.84,4.38-16.69,14.24-16.69,25.7s6.86,21.33,16.69,25.71c3.49,1.57,7.37,2.44,11.45,2.44.79,0,1.59-.03,2.36-.11.5.07,1.02.11,1.54.11h39.28c6.12,0,11.08-4.96,11.08-11.08v-34.13c0-6.12-4.96-11.08-11.08-11.08ZM300.8,273.87c-2.18,0-4.24-.46-6.09-1.32-1.59-.71-3.03-1.69-4.25-2.9-2.77-2.69-4.48-6.46-4.48-10.62s1.71-7.92,4.48-10.61c1.23-1.21,2.67-2.2,4.25-2.91,1.86-.84,3.92-1.31,6.09-1.31,8.19,0,14.83,6.63,14.83,14.83s-6.64,14.83-14.83,14.83Z"/>
    <path class="cls-2" d="M313.06,69.74h-51.97v-19.24c0-27.62-22.39-50-50-50h-79.05c-27.61,0-50,22.38-50,50v19.24H30.5c-16.57,0-30,13.43-30,30v45.8c39.24,0,69.63,56.04,144.48,56.04v-10.81c0-21.91,17.76-39.67,39.67-39.67h128.41c16.57,0,30-13.43,30-30v-21.36c0-16.57-13.43-30-30-30ZM234.05,69.74h-124.97v-23.12c0-11.05,8.95-20,20-20h84.97c11.05,0,20,8.95,20,20v23.12Z"/>
  </g>
</svg>